<?xml version="1.0" encoding="UTF-8" standalone="no"?>
<!DOCTYPE svg PUBLIC "-//W3C//DTD SVG 1.1//EN"
 "http://www.w3.org/Graphics/SVG/1.1/DTD/svg11.dtd">
<!-- Generated by graphviz version 13.1.2 (20250808.2320)
 -->
<!-- Pages: 1 -->
<svg width="720pt" height="343pt"
 viewBox="0.00 0.00 720.00 343.00" xmlns="http://www.w3.org/2000/svg" xmlns:xlink="http://www.w3.org/1999/xlink">
<g id="graph0" class="graph" transform="scale(0.724836 0.724836) rotate(0) translate(4 468.59)">
<polygon fill="white" stroke="none" points="-4,4 -4,-468.59 989.33,-468.59 989.33,4 -4,4"/>
<!-- sonicjyotish -->
<g id="node1" class="node">
<title>sonicjyotish</title>
<g id="a_node1"><a xlink:href="file:///C:/Users/MZs/Documents/A pykódok/sj/open_scripts/open_sonicjyotish.bat" xlink:title="sonicjyotish" target="_blank">
<ellipse fill="none" stroke="black" cx="95.75" cy="-247" rx="55.45" ry="18"/>
<text xml:space="preserve" text-anchor="middle" x="95.75" y="-241.95" font-family="Times New Roman,serif" font-size="14.00">sonicjyotish</text>
</a>
</g>
</g>
<!-- astro_core -->
<g id="node2" class="node">
<title>astro_core</title>
<ellipse fill="none" stroke="black" cx="817.28" cy="-228" rx="49.3" ry="18"/>
<text xml:space="preserve" text-anchor="middle" x="817.28" y="-222.95" font-family="Times New Roman,serif" font-size="14.00">astro_core</text>
</g>
<!-- sonicjyotish&#45;&gt;astro_core -->
<g id="edge21" class="edge">
<title>sonicjyotish&#45;&gt;astro_core</title>
<path fill="none" stroke="green" d="M148.59,-240.93C172.59,-238.15 201.49,-234.85 227.5,-232 444.83,-208.21 502.09,-163.68 718.16,-197 736.41,-199.81 755.92,-205.41 772.69,-211.08"/>
<polygon fill="green" stroke="green" points="771.26,-214.29 781.85,-214.29 773.57,-207.68 771.26,-214.29"/>
</g>
<!-- dasa_tools -->
<g id="node6" class="node">
<title>dasa_tools</title>
<ellipse fill="none" stroke="black" cx="640.71" cy="-224" rx="49.82" ry="18"/>
<text xml:space="preserve" text-anchor="middle" x="640.71" y="-218.95" font-family="Times New Roman,serif" font-size="14.00">dasa_tools</text>
</g>
<!-- sonicjyotish&#45;&gt;dasa_tools -->
<g id="edge23" class="edge">
<title>sonicjyotish&#45;&gt;dasa_tools</title>
<path fill="none" stroke="green" d="M151.05,-244.7C253.17,-240.37 473.13,-231.06 579.57,-226.55"/>
<polygon fill="green" stroke="green" points="579.7,-230.05 589.54,-226.13 579.4,-223.05 579.7,-230.05"/>
</g>
<!-- prashna_core -->
<g id="node7" class="node">
<title>prashna_core</title>
<ellipse fill="none" stroke="black" cx="640.71" cy="-56" rx="60.05" ry="18"/>
<text xml:space="preserve" text-anchor="middle" x="640.71" y="-50.95" font-family="Times New Roman,serif" font-size="14.00">prashna_core</text>
</g>
<!-- sonicjyotish&#45;&gt;prashna_core -->
<g id="edge26" class="edge">
<title>sonicjyotish&#45;&gt;prashna_core</title>
<path fill="none" stroke="green" d="M119.54,-230.54C145,-212.64 187.86,-183.91 227.5,-164 300.84,-127.15 320.86,-119.85 399.98,-98 457.48,-82.12 524.47,-70.98 572.99,-64.18"/>
<polygon fill="green" stroke="green" points="573.36,-67.67 582.79,-62.84 572.41,-60.73 573.36,-67.67"/>
</g>
<!-- draw -->
<g id="node8" class="node">
<title>draw</title>
<ellipse fill="none" stroke="black" cx="640.71" cy="-408" rx="29.34" ry="18"/>
<text xml:space="preserve" text-anchor="middle" x="640.71" y="-402.95" font-family="Times New Roman,serif" font-size="14.00">draw</text>
</g>
<!-- sonicjyotish&#45;&gt;draw -->
<g id="edge22" class="edge">
<title>sonicjyotish&#45;&gt;draw</title>
<path fill="none" stroke="green" d="M147.58,-253.55C162.95,-257.51 179.04,-263.84 191.5,-274 218.31,-295.85 199.41,-322.81 227.5,-343 342.21,-425.44 521.32,-420.01 600.18,-412.73"/>
<polygon fill="green" stroke="green" points="600.39,-416.23 610,-411.76 599.7,-409.26 600.39,-416.23"/>
</g>
<!-- varshaphala_tools -->
<g id="node10" class="node">
<title>varshaphala_tools</title>
<ellipse fill="none" stroke="black" cx="640.71" cy="-278" rx="77.45" ry="18"/>
<text xml:space="preserve" text-anchor="middle" x="640.71" y="-272.95" font-family="Times New Roman,serif" font-size="14.00">varshaphala_tools</text>
</g>
<!-- sonicjyotish&#45;&gt;varshaphala_tools -->
<g id="edge25" class="edge">
<title>sonicjyotish&#45;&gt;varshaphala_tools</title>
<path fill="none" stroke="green" d="M150.8,-250.09C245.19,-255.48 440.8,-266.64 553.89,-273.1"/>
<polygon fill="green" stroke="green" points="553.55,-276.59 563.73,-273.66 553.95,-269.6 553.55,-276.59"/>
</g>
<!-- media_pipeline -->
<g id="node11" class="node">
<title>media_pipeline</title>
<ellipse fill="none" stroke="black" cx="295.74" cy="-316" rx="68.24" ry="18"/>
<text xml:space="preserve" text-anchor="middle" x="295.74" y="-310.95" font-family="Times New Roman,serif" font-size="14.00">media_pipeline</text>
</g>
<!-- sonicjyotish&#45;&gt;media_pipeline -->
<g id="edge24" class="edge">
<title>sonicjyotish&#45;&gt;media_pipeline</title>
<path fill="none" stroke="green" d="M139.98,-258.25C156.25,-262.77 174.84,-268.26 191.5,-274 210.53,-280.56 231.13,-288.72 248.9,-296.1"/>
<polygon fill="green" stroke="green" points="247.3,-299.23 257.87,-299.87 250.01,-292.77 247.3,-299.23"/>
</g>
<!-- tables -->
<g id="node3" class="node">
<title>tables</title>
<ellipse fill="none" stroke="black" cx="950.87" cy="-427" rx="32.41" ry="18"/>
<text xml:space="preserve" text-anchor="middle" x="950.87" y="-421.95" font-family="Times New Roman,serif" font-size="14.00">tables</text>
</g>
<!-- astro_core&#45;&gt;tables -->
<g id="edge1" class="edge">
<title>astro_core&#45;&gt;tables</title>
<path fill="none" stroke="blue" d="M829.96,-245.66C853.14,-280.72 905.09,-359.29 932.38,-400.55"/>
<polygon fill="blue" stroke="blue" points="929.32,-402.27 937.76,-408.68 935.16,-398.41 929.32,-402.27"/>
</g>
<!-- config -->
<g id="node4" class="node">
<title>config</title>
<ellipse fill="none" stroke="black" cx="950.87" cy="-190" rx="34.46" ry="18"/>
<text xml:space="preserve" text-anchor="middle" x="950.87" y="-184.95" font-family="Times New Roman,serif" font-size="14.00">config</text>
</g>
<!-- astro_core&#45;&gt;config -->
<g id="edge2" class="edge">
<title>astro_core&#45;&gt;config</title>
<path fill="none" stroke="blue" d="M856.7,-216.91C873.25,-212.13 892.61,-206.53 909.39,-201.69"/>
<polygon fill="blue" stroke="blue" points="909.89,-205.19 918.53,-199.05 907.95,-198.46 909.89,-205.19"/>
</g>
<!-- dasa_mandala -->
<g id="node5" class="node">
<title>dasa_mandala</title>
<ellipse fill="none" stroke="black" cx="463.62" cy="-125" rx="63.63" ry="18"/>
<text xml:space="preserve" text-anchor="middle" x="463.62" y="-119.95" font-family="Times New Roman,serif" font-size="14.00">dasa_mandala</text>
</g>
<!-- dasa_mandala&#45;&gt;astro_core -->
<g id="edge3" class="edge">
<title>dasa_mandala&#45;&gt;astro_core</title>
<path fill="none" stroke="green" d="M527.2,-127.27C579.7,-130.88 655.87,-140.18 718.16,-164 743.23,-173.59 768.54,-190.3 787.17,-204.25"/>
<polygon fill="green" stroke="green" points="785,-207 795.06,-210.31 789.26,-201.44 785,-207"/>
</g>
<!-- dasa_mandala&#45;&gt;config -->
<g id="edge6" class="edge">
<title>dasa_mandala&#45;&gt;config</title>
<path fill="none" stroke="green" d="M525.9,-120.72C577.45,-118.2 652.97,-117.03 718.16,-126 787.72,-135.57 865.92,-160.2 911.37,-175.97"/>
<polygon fill="green" stroke="green" points="910.17,-179.26 920.77,-179.27 912.49,-172.65 910.17,-179.26"/>
</g>
<!-- dasa_mandala&#45;&gt;dasa_tools -->
<g id="edge4" class="edge">
<title>dasa_mandala&#45;&gt;dasa_tools</title>
<path fill="none" stroke="blue" d="M493.53,-141.35C523.55,-158.32 570.58,-184.91 603.15,-203.33"/>
<polygon fill="blue" stroke="blue" points="601.02,-206.15 611.45,-208.02 604.46,-200.05 601.02,-206.15"/>
</g>
<!-- dasa_mandala&#45;&gt;prashna_core -->
<g id="edge5" class="edge">
<title>dasa_mandala&#45;&gt;prashna_core</title>
<path fill="none" stroke="green" d="M501.75,-110.37C528.27,-99.91 564.17,-85.77 592.69,-74.53"/>
<polygon fill="green" stroke="green" points="593.8,-77.85 601.82,-70.93 591.23,-71.34 593.8,-77.85"/>
</g>
<!-- prashna_core&#45;&gt;astro_core -->
<g id="edge18" class="edge">
<title>prashna_core&#45;&gt;astro_core</title>
<path fill="none" stroke="blue" d="M661.18,-73.22C676.83,-87.19 699.22,-107.53 718.16,-126 744.17,-151.37 772.87,-181.47 792.47,-202.36"/>
<polygon fill="blue" stroke="blue" points="789.86,-204.7 799.25,-209.61 794.98,-199.91 789.86,-204.7"/>
</g>
<!-- prashna_core&#45;&gt;config -->
<g id="edge19" class="edge">
<title>prashna_core&#45;&gt;config</title>
<path fill="none" stroke="blue" d="M698.6,-51.1C749.88,-49.43 825.44,-54.06 880.41,-88 908.23,-105.18 927.57,-138.13 938.65,-161.94"/>
<polygon fill="blue" stroke="blue" points="935.3,-163.03 942.54,-170.76 941.7,-160.2 935.3,-163.03"/>
</g>
<!-- draw&#45;&gt;astro_core -->
<g id="edge8" class="edge">
<title>draw&#45;&gt;astro_core</title>
<path fill="none" stroke="blue" d="M658.56,-393.45C674.36,-379.6 698.44,-357.98 718.16,-338 745.49,-310.31 774.97,-276.71 794.41,-253.98"/>
<polygon fill="blue" stroke="blue" points="797.04,-256.29 800.85,-246.41 791.71,-251.75 797.04,-256.29"/>
</g>
<!-- draw&#45;&gt;tables -->
<g id="edge7" class="edge">
<title>draw&#45;&gt;tables</title>
<path fill="none" stroke="blue" d="M670.14,-409.75C724.43,-413.1 843.09,-420.42 907.03,-424.36"/>
<polygon fill="blue" stroke="blue" points="906.59,-427.84 916.79,-424.96 907.02,-420.85 906.59,-427.84"/>
</g>
<!-- draw&#45;&gt;config -->
<g id="edge9" class="edge">
<title>draw&#45;&gt;config</title>
<path fill="none" stroke="blue" d="M669.93,-411.09C718.59,-414.81 818.97,-415.25 880.41,-365 925.12,-328.43 941.2,-258.96 946.87,-219.43"/>
<polygon fill="blue" stroke="blue" points="950.32,-220.07 948.13,-209.7 943.38,-219.17 950.32,-220.07"/>
</g>
<!-- elemzes -->
<g id="node9" class="node">
<title>elemzes</title>
<ellipse fill="none" stroke="black" cx="463.62" cy="-324" rx="41.12" ry="18"/>
<text xml:space="preserve" text-anchor="middle" x="463.62" y="-318.95" font-family="Times New Roman,serif" font-size="14.00">elemzes</text>
</g>
<!-- elemzes&#45;&gt;astro_core -->
<g id="edge10" class="edge">
<title>elemzes&#45;&gt;astro_core</title>
<path fill="none" stroke="blue" d="M503.95,-327.95C555.16,-331.57 646.55,-332.78 718.16,-305 747.05,-293.79 774.29,-271.06 792.71,-253.18"/>
<polygon fill="blue" stroke="blue" points="794.86,-255.99 799.46,-246.44 789.91,-251.04 794.86,-255.99"/>
</g>
<!-- elemzes&#45;&gt;tables -->
<g id="edge14" class="edge">
<title>elemzes&#45;&gt;tables</title>
<path fill="none" stroke="blue" d="M473.85,-341.64C488.65,-367.78 520.45,-415.78 563.25,-435 680.68,-487.74 839.09,-456.99 911.21,-438.23"/>
<polygon fill="blue" stroke="blue" points="911.81,-441.69 920.57,-435.73 910,-434.93 911.81,-441.69"/>
</g>
<!-- elemzes&#45;&gt;config -->
<g id="edge13" class="edge">
<title>elemzes&#45;&gt;config</title>
<path fill="none" stroke="blue" d="M502.11,-330.69C552.08,-338.32 642.94,-347.74 718.16,-331 795.88,-313.7 814.47,-299.64 880.41,-255 897.46,-243.45 914.38,-227.74 927.25,-214.65"/>
<polygon fill="blue" stroke="blue" points="929.63,-217.22 934.03,-207.59 924.58,-212.37 929.63,-217.22"/>
</g>
<!-- elemzes&#45;&gt;dasa_tools -->
<g id="edge15" class="edge">
<title>elemzes&#45;&gt;dasa_tools</title>
<path fill="none" stroke="blue" d="M482.77,-307.95C501.76,-291.82 532.96,-267.09 563.25,-251 571.74,-246.49 581.14,-242.47 590.36,-238.99"/>
<polygon fill="blue" stroke="blue" points="591.38,-242.34 599.61,-235.67 589.02,-235.75 591.38,-242.34"/>
</g>
<!-- elemzes&#45;&gt;draw -->
<g id="edge11" class="edge">
<title>elemzes&#45;&gt;draw</title>
<path fill="none" stroke="blue" d="M489.85,-338.1C509.59,-348.93 537.87,-364.02 563.25,-376 576.67,-382.33 591.69,-388.75 604.83,-394.17"/>
<polygon fill="blue" stroke="blue" points="603.38,-397.35 613.96,-397.88 606.02,-390.87 603.38,-397.35"/>
</g>
<!-- elemzes&#45;&gt;varshaphala_tools -->
<g id="edge12" class="edge">
<title>elemzes&#45;&gt;varshaphala_tools</title>
<path fill="none" stroke="green" d="M499.63,-314.8C521.81,-308.97 551.13,-301.27 577.21,-294.42"/>
<polygon fill="green" stroke="green" points="577.91,-297.85 586.69,-291.93 576.13,-291.08 577.91,-297.85"/>
</g>
<!-- varshaphala_tools&#45;&gt;astro_core -->
<g id="edge17" class="edge">
<title>varshaphala_tools&#45;&gt;astro_core</title>
<path fill="none" stroke="green" d="M690.8,-263.94C714.48,-257.16 742.83,-249.04 766.59,-242.23"/>
<polygon fill="green" stroke="green" points="767.39,-245.64 776.04,-239.53 765.46,-238.91 767.39,-245.64"/>
</g>
<!-- media_pipeline&#45;&gt;elemzes -->
<g id="edge16" class="edge">
<title>media_pipeline&#45;&gt;elemzes</title>
<path fill="none" stroke="blue" d="M363.25,-319.21C379.2,-319.98 395.99,-320.79 411.13,-321.52"/>
<polygon fill="blue" stroke="blue" points="410.69,-325 420.84,-321.99 411.02,-318.01 410.69,-325"/>
</g>
<!-- location_tools -->
<g id="node12" class="node">
<title>location_tools</title>
<ellipse fill="none" stroke="black" cx="817.28" cy="-18" rx="63.12" ry="18"/>
<text xml:space="preserve" text-anchor="middle" x="817.28" y="-12.95" font-family="Times New Roman,serif" font-size="14.00">location_tools</text>
</g>
<!-- location_tools&#45;&gt;config -->
<g id="edge20" class="edge">
<title>location_tools&#45;&gt;config</title>
<path fill="none" stroke="blue" d="M856.02,-32.6C864.76,-37.22 873.51,-43 880.41,-50 911.64,-81.71 931.37,-130.27 941.51,-161.06"/>
<polygon fill="blue" stroke="blue" points="938.13,-161.99 944.48,-170.48 944.81,-159.89 938.13,-161.99"/>
</g>
<!-- legend -->
<g id="node13" class="node">
<title>legend</title>
<polygon fill="lightgrey" stroke="black" points="185.5,-373.25 0,-373.25 0,-282.75 191.5,-282.75 191.5,-367.25 185.5,-373.25"/>
<polyline fill="none" stroke="black" points="185.5,-373.25 185.5,-367.25"/>
<polyline fill="none" stroke="black" points="191.5,-367.25 185.5,-367.25"/>
<text xml:space="preserve" text-anchor="middle" x="95.75" y="-355.95" font-family="Times New Roman,serif" font-size="14.00">Színkód:</text>
<text xml:space="preserve" text-anchor="middle" x="95.75" y="-339.45" font-family="Times New Roman,serif" font-size="14.00">🔵 AST + Regex</text>
<text xml:space="preserve" text-anchor="middle" x="95.75" y="-322.95" font-family="Times New Roman,serif" font-size="14.00">🟢 Regex</text>
<text xml:space="preserve" text-anchor="middle" x="95.75" y="-306.45" font-family="Times New Roman,serif" font-size="14.00">🔴 AST</text>
<text xml:space="preserve" text-anchor="middle" x="95.75" y="-289.95" font-family="Times New Roman,serif" font-size="14.00">🔴 Modul: körkörös importban</text>
</g>
</g>
</svg>
